<svg id="wave" style="transform:rotate(0deg); transition: 0.3s" viewBox="0 0 1440 250" version="1.1" xmlns="http://www.w3.org/2000/svg"><defs><linearGradient id="sw-gradient-0" x1="0" x2="0" y1="1" y2="0"><stop stop-color="rgba(255, 255, 255, 1)" offset="0%"></stop><stop stop-color="rgba(255, 255, 255, 1)" offset="100%"></stop></linearGradient></defs><path style="transform:translate(0, 0px); opacity:1" fill="url(#sw-gradient-0)" d="M0,50L60,54.2C120,58,240,67,360,91.7C480,117,600,158,720,145.8C840,133,960,67,1080,33.3C1200,0,1320,0,1440,37.5C1560,75,1680,150,1800,187.5C1920,225,2040,225,2160,187.5C2280,150,2400,75,2520,50C2640,25,2760,50,2880,75C3000,100,3120,125,3240,116.7C3360,108,3480,67,3600,62.5C3720,58,3840,92,3960,91.7C4080,92,4200,58,4320,45.8C4440,33,4560,42,4680,41.7C4800,42,4920,33,5040,25C5160,17,5280,8,5400,33.3C5520,58,5640,117,5760,154.2C5880,192,6000,208,6120,216.7C6240,225,6360,225,6480,204.2C6600,183,6720,142,6840,125C6960,108,7080,117,7200,112.5C7320,108,7440,92,7560,108.3C7680,125,7800,175,7920,191.7C8040,208,8160,192,8280,191.7C8400,192,8520,208,8580,216.7L8640,225L8640,250L8580,250C8520,250,8400,250,8280,250C8160,250,8040,250,7920,250C7800,250,7680,250,7560,250C7440,250,7320,250,7200,250C7080,250,6960,250,6840,250C6720,250,6600,250,6480,250C6360,250,6240,250,6120,250C6000,250,5880,250,5760,250C5640,250,5520,250,5400,250C5280,250,5160,250,5040,250C4920,250,4800,250,4680,250C4560,250,4440,250,4320,250C4200,250,4080,250,3960,250C3840,250,3720,250,3600,250C3480,250,3360,250,3240,250C3120,250,3000,250,2880,250C2760,250,2640,250,2520,250C2400,250,2280,250,2160,250C2040,250,1920,250,1800,250C1680,250,1560,250,1440,250C1320,250,1200,250,1080,250C960,250,840,250,720,250C600,250,480,250,360,250C240,250,120,250,60,250L0,250Z"></path></svg>